<mxfile host="app.diagrams.net" modified="2023-12-22T14:58:14.740Z" agent="Mozilla/5.0 (Windows NT 10.0; Win64; x64) AppleWebKit/537.36 (KHTML, like Gecko) Chrome/120.0.0.0 Safari/537.36" etag="SinBpuUF1fUsb_Ricpz-" version="22.1.11" type="github">
  <diagram name="第 1 页" id="X9jvzgMZtcE-ZR-s-Yis">
    <mxGraphModel dx="2074" dy="1106" grid="1" gridSize="10" guides="1" tooltips="1" connect="1" arrows="1" fold="1" page="1" pageScale="1" pageWidth="827" pageHeight="1169" math="1" shadow="0">
      <root>
        <mxCell id="0" />
        <mxCell id="1" parent="0" />
        <mxCell id="bzvXZ9JU_XJJX3I2Di7V-11" value="Y" style="edgeStyle=orthogonalEdgeStyle;rounded=0;orthogonalLoop=1;jettySize=auto;html=1;exitX=0.5;exitY=0;exitDx=0;exitDy=0;entryX=0.5;entryY=1;entryDx=0;entryDy=0;" parent="1" source="bzvXZ9JU_XJJX3I2Di7V-1" target="bzvXZ9JU_XJJX3I2Di7V-3" edge="1">
          <mxGeometry x="0.0118" relative="1" as="geometry">
            <mxPoint as="offset" />
          </mxGeometry>
        </mxCell>
        <mxCell id="bzvXZ9JU_XJJX3I2Di7V-1" value="卷积层" style="shape=hexagon;perimeter=hexagonPerimeter2;whiteSpace=wrap;html=1;fixedSize=1;" parent="1" vertex="1">
          <mxGeometry x="223" y="610" width="95" height="60" as="geometry" />
        </mxCell>
        <mxCell id="bzvXZ9JU_XJJX3I2Di7V-14" style="edgeStyle=orthogonalEdgeStyle;rounded=0;orthogonalLoop=1;jettySize=auto;html=1;exitX=0.5;exitY=0;exitDx=0;exitDy=0;entryX=0.5;entryY=1;entryDx=0;entryDy=0;" parent="1" source="bzvXZ9JU_XJJX3I2Di7V-2" target="bzvXZ9JU_XJJX3I2Di7V-4" edge="1">
          <mxGeometry relative="1" as="geometry" />
        </mxCell>
        <mxCell id="bzvXZ9JU_XJJX3I2Di7V-27" value="&lt;font style=&quot;font-size: 10px;&quot;&gt;$$ \hat Y$$&lt;/font&gt;" style="edgeLabel;html=1;align=center;verticalAlign=middle;resizable=0;points=[];" parent="bzvXZ9JU_XJJX3I2Di7V-14" vertex="1" connectable="0">
          <mxGeometry x="-0.2209" y="2" relative="1" as="geometry">
            <mxPoint as="offset" />
          </mxGeometry>
        </mxCell>
        <mxCell id="bzvXZ9JU_XJJX3I2Di7V-2" value="ReLu层" style="rounded=1;whiteSpace=wrap;html=1;" parent="1" vertex="1">
          <mxGeometry x="230" y="355" width="80" height="40" as="geometry" />
        </mxCell>
        <mxCell id="bzvXZ9JU_XJJX3I2Di7V-12" style="edgeStyle=orthogonalEdgeStyle;rounded=0;orthogonalLoop=1;jettySize=auto;html=1;exitX=0.5;exitY=0;exitDx=0;exitDy=0;entryX=0.5;entryY=1;entryDx=0;entryDy=0;" parent="1" source="bzvXZ9JU_XJJX3I2Di7V-3" target="bzvXZ9JU_XJJX3I2Di7V-2" edge="1">
          <mxGeometry relative="1" as="geometry" />
        </mxCell>
        <mxCell id="bzvXZ9JU_XJJX3I2Di7V-23" value="&lt;div style=&quot;font-family: Consolas, &amp;quot;Courier New&amp;quot;, monospace; line-height: 19px;&quot;&gt;&lt;span style=&quot;background-color: rgb(255, 255, 255);&quot;&gt;&lt;font style=&quot;font-size: 10px;&quot;&gt;$$\gamma \frac{Y-\mu}{\sqrt{\sigma^2+\epsilon}}+\beta$$&lt;/font&gt;&lt;/span&gt;&lt;/div&gt;" style="edgeLabel;html=1;align=center;verticalAlign=middle;resizable=0;points=[];" parent="bzvXZ9JU_XJJX3I2Di7V-12" vertex="1" connectable="0">
          <mxGeometry x="0.0275" relative="1" as="geometry">
            <mxPoint as="offset" />
          </mxGeometry>
        </mxCell>
        <mxCell id="bzvXZ9JU_XJJX3I2Di7V-3" value="BN层" style="rounded=0;whiteSpace=wrap;html=1;" parent="1" vertex="1">
          <mxGeometry x="225.5" y="520" width="90" height="40" as="geometry" />
        </mxCell>
        <mxCell id="bzvXZ9JU_XJJX3I2Di7V-15" style="edgeStyle=orthogonalEdgeStyle;rounded=0;orthogonalLoop=1;jettySize=auto;html=1;exitX=0.5;exitY=0;exitDx=0;exitDy=0;" parent="1" source="bzvXZ9JU_XJJX3I2Di7V-4" edge="1">
          <mxGeometry relative="1" as="geometry">
            <mxPoint x="270" y="170" as="targetPoint" />
          </mxGeometry>
        </mxCell>
        <mxCell id="bzvXZ9JU_XJJX3I2Di7V-4" value="伪量化节点" style="ellipse;whiteSpace=wrap;html=1;" parent="1" vertex="1">
          <mxGeometry x="225" y="220" width="90" height="60" as="geometry" />
        </mxCell>
        <mxCell id="bzvXZ9JU_XJJX3I2Di7V-16" value="Q(W)" style="edgeStyle=orthogonalEdgeStyle;rounded=0;orthogonalLoop=1;jettySize=auto;html=1;exitX=1;exitY=0.5;exitDx=0;exitDy=0;" parent="1" source="bzvXZ9JU_XJJX3I2Di7V-5" edge="1">
          <mxGeometry relative="1" as="geometry">
            <mxPoint x="220.5" y="639.8235294117646" as="targetPoint" />
          </mxGeometry>
        </mxCell>
        <mxCell id="bzvXZ9JU_XJJX3I2Di7V-5" value="伪量化节点" style="ellipse;whiteSpace=wrap;html=1;" parent="1" vertex="1">
          <mxGeometry x="70.5" y="610" width="90" height="60" as="geometry" />
        </mxCell>
        <mxCell id="bzvXZ9JU_XJJX3I2Di7V-17" value="W" style="endArrow=classic;html=1;rounded=0;entryX=-0.038;entryY=0.497;entryDx=0;entryDy=0;entryPerimeter=0;" parent="1" target="bzvXZ9JU_XJJX3I2Di7V-5" edge="1">
          <mxGeometry width="50" height="50" relative="1" as="geometry">
            <mxPoint x="30.5" y="640" as="sourcePoint" />
            <mxPoint x="60.5" y="630" as="targetPoint" />
          </mxGeometry>
        </mxCell>
        <mxCell id="bzvXZ9JU_XJJX3I2Di7V-20" value="X" style="endArrow=classic;html=1;rounded=0;entryX=0.5;entryY=1;entryDx=0;entryDy=0;" parent="1" target="bzvXZ9JU_XJJX3I2Di7V-1" edge="1">
          <mxGeometry width="50" height="50" relative="1" as="geometry">
            <mxPoint x="270.5" y="750" as="sourcePoint" />
            <mxPoint x="290.5" y="730" as="targetPoint" />
          </mxGeometry>
        </mxCell>
        <mxCell id="bzvXZ9JU_XJJX3I2Di7V-28" value="伪量化节点" style="ellipse;whiteSpace=wrap;html=1;" parent="1" vertex="1">
          <mxGeometry x="70.5" y="690" width="90" height="60" as="geometry" />
        </mxCell>
        <mxCell id="bzvXZ9JU_XJJX3I2Di7V-29" value="B" style="endArrow=classic;html=1;rounded=0;entryX=-0.038;entryY=0.497;entryDx=0;entryDy=0;entryPerimeter=0;" parent="1" edge="1">
          <mxGeometry width="50" height="50" relative="1" as="geometry">
            <mxPoint x="34" y="719.71" as="sourcePoint" />
            <mxPoint x="70.5" y="719.71" as="targetPoint" />
          </mxGeometry>
        </mxCell>
        <mxCell id="bzvXZ9JU_XJJX3I2Di7V-30" style="edgeStyle=orthogonalEdgeStyle;rounded=0;orthogonalLoop=1;jettySize=auto;html=1;exitX=1;exitY=0.5;exitDx=0;exitDy=0;entryX=0.186;entryY=1.026;entryDx=0;entryDy=0;entryPerimeter=0;" parent="1" source="bzvXZ9JU_XJJX3I2Di7V-28" target="bzvXZ9JU_XJJX3I2Di7V-1" edge="1">
          <mxGeometry relative="1" as="geometry" />
        </mxCell>
        <mxCell id="bzvXZ9JU_XJJX3I2Di7V-31" value="Q(B)" style="edgeLabel;html=1;align=center;verticalAlign=middle;resizable=0;points=[];" parent="bzvXZ9JU_XJJX3I2Di7V-30" vertex="1" connectable="0">
          <mxGeometry x="-0.5304" y="2" relative="1" as="geometry">
            <mxPoint as="offset" />
          </mxGeometry>
        </mxCell>
        <mxCell id="bzvXZ9JU_XJJX3I2Di7V-50" style="edgeStyle=orthogonalEdgeStyle;rounded=0;orthogonalLoop=1;jettySize=auto;html=1;exitX=0.5;exitY=0;exitDx=0;exitDy=0;entryX=0.5;entryY=1;entryDx=0;entryDy=0;" parent="1" source="bzvXZ9JU_XJJX3I2Di7V-33" edge="1" target="bzvXZ9JU_XJJX3I2Di7V-36">
          <mxGeometry relative="1" as="geometry">
            <mxPoint x="587" y="439.9999999999999" as="targetPoint" />
          </mxGeometry>
        </mxCell>
        <mxCell id="bzvXZ9JU_XJJX3I2Di7V-33" value="合并后卷积层" style="shape=hexagon;perimeter=hexagonPerimeter2;whiteSpace=wrap;html=1;fixedSize=1;" parent="1" vertex="1">
          <mxGeometry x="539.5" y="510" width="95" height="60" as="geometry" />
        </mxCell>
        <mxCell id="bzvXZ9JU_XJJX3I2Di7V-34" style="edgeStyle=orthogonalEdgeStyle;rounded=0;orthogonalLoop=1;jettySize=auto;html=1;exitX=0.5;exitY=0;exitDx=0;exitDy=0;entryX=0.5;entryY=1;entryDx=0;entryDy=0;" parent="1" source="bzvXZ9JU_XJJX3I2Di7V-36" target="bzvXZ9JU_XJJX3I2Di7V-41" edge="1">
          <mxGeometry relative="1" as="geometry" />
        </mxCell>
        <mxCell id="bzvXZ9JU_XJJX3I2Di7V-35" value="&lt;font style=&quot;font-size: 10px;&quot;&gt;$$ \hat Y$$&lt;/font&gt;" style="edgeLabel;html=1;align=center;verticalAlign=middle;resizable=0;points=[];" parent="bzvXZ9JU_XJJX3I2Di7V-34" vertex="1" connectable="0">
          <mxGeometry x="-0.2209" y="2" relative="1" as="geometry">
            <mxPoint as="offset" />
          </mxGeometry>
        </mxCell>
        <mxCell id="bzvXZ9JU_XJJX3I2Di7V-36" value="ReLu层" style="rounded=1;whiteSpace=wrap;html=1;" parent="1" vertex="1">
          <mxGeometry x="547.5" y="365" width="80" height="40" as="geometry" />
        </mxCell>
        <mxCell id="bzvXZ9JU_XJJX3I2Di7V-40" style="edgeStyle=orthogonalEdgeStyle;rounded=0;orthogonalLoop=1;jettySize=auto;html=1;exitX=0.5;exitY=0;exitDx=0;exitDy=0;" parent="1" source="bzvXZ9JU_XJJX3I2Di7V-41" edge="1">
          <mxGeometry relative="1" as="geometry">
            <mxPoint x="587.5" y="180" as="targetPoint" />
          </mxGeometry>
        </mxCell>
        <mxCell id="bzvXZ9JU_XJJX3I2Di7V-41" value="伪量化节点" style="ellipse;whiteSpace=wrap;html=1;" parent="1" vertex="1">
          <mxGeometry x="542.5" y="230" width="90" height="60" as="geometry" />
        </mxCell>
        <mxCell id="bzvXZ9JU_XJJX3I2Di7V-42" value="Q(W)" style="edgeStyle=orthogonalEdgeStyle;rounded=0;orthogonalLoop=1;jettySize=auto;html=1;exitX=1;exitY=0.5;exitDx=0;exitDy=0;" parent="1" source="bzvXZ9JU_XJJX3I2Di7V-43" edge="1">
          <mxGeometry relative="1" as="geometry">
            <mxPoint x="537" y="539.8235294117646" as="targetPoint" />
          </mxGeometry>
        </mxCell>
        <mxCell id="bzvXZ9JU_XJJX3I2Di7V-43" value="伪量化节点" style="ellipse;whiteSpace=wrap;html=1;" parent="1" vertex="1">
          <mxGeometry x="387" y="510" width="90" height="60" as="geometry" />
        </mxCell>
        <mxCell id="bzvXZ9JU_XJJX3I2Di7V-45" value="X" style="endArrow=classic;html=1;rounded=0;entryX=0.5;entryY=1;entryDx=0;entryDy=0;" parent="1" target="bzvXZ9JU_XJJX3I2Di7V-33" edge="1">
          <mxGeometry width="50" height="50" relative="1" as="geometry">
            <mxPoint x="587" y="750" as="sourcePoint" />
            <mxPoint x="607" y="630" as="targetPoint" />
          </mxGeometry>
        </mxCell>
        <mxCell id="bzvXZ9JU_XJJX3I2Di7V-46" value="伪量化节点" style="ellipse;whiteSpace=wrap;html=1;" parent="1" vertex="1">
          <mxGeometry x="387" y="590" width="90" height="60" as="geometry" />
        </mxCell>
        <mxCell id="bzvXZ9JU_XJJX3I2Di7V-48" style="edgeStyle=orthogonalEdgeStyle;rounded=0;orthogonalLoop=1;jettySize=auto;html=1;exitX=1;exitY=0.5;exitDx=0;exitDy=0;entryX=0.186;entryY=1.026;entryDx=0;entryDy=0;entryPerimeter=0;" parent="1" source="bzvXZ9JU_XJJX3I2Di7V-46" target="bzvXZ9JU_XJJX3I2Di7V-33" edge="1">
          <mxGeometry relative="1" as="geometry" />
        </mxCell>
        <mxCell id="bzvXZ9JU_XJJX3I2Di7V-49" value="Q(B)" style="edgeLabel;html=1;align=center;verticalAlign=middle;resizable=0;points=[];" parent="bzvXZ9JU_XJJX3I2Di7V-48" vertex="1" connectable="0">
          <mxGeometry x="-0.5304" y="2" relative="1" as="geometry">
            <mxPoint as="offset" />
          </mxGeometry>
        </mxCell>
        <mxCell id="bzvXZ9JU_XJJX3I2Di7V-51" value="" style="endArrow=classic;html=1;rounded=0;entryX=0.5;entryY=0;entryDx=0;entryDy=0;" parent="1" target="bzvXZ9JU_XJJX3I2Di7V-43" edge="1">
          <mxGeometry width="50" height="50" relative="1" as="geometry">
            <mxPoint x="435" y="310" as="sourcePoint" />
            <mxPoint x="330" y="390" as="targetPoint" />
          </mxGeometry>
        </mxCell>
        <mxCell id="bzvXZ9JU_XJJX3I2Di7V-52" value="&lt;div style=&quot;font-family: Consolas, &amp;quot;Courier New&amp;quot;, monospace; line-height: 19px;&quot;&gt;&lt;span style=&quot;background-color: rgb(255, 255, 255);&quot;&gt;&lt;font style=&quot;font-size: 11px;&quot;&gt;$$\frac{\gamma }{\sqrt{\sigma^2+\epsilon}}W$$&lt;/font&gt;&lt;/span&gt;&lt;/div&gt;" style="edgeLabel;html=1;align=center;verticalAlign=middle;resizable=0;points=[];" parent="bzvXZ9JU_XJJX3I2Di7V-51" vertex="1" connectable="0">
          <mxGeometry x="-0.3143" y="-2" relative="1" as="geometry">
            <mxPoint x="2" y="32" as="offset" />
          </mxGeometry>
        </mxCell>
        <mxCell id="bzvXZ9JU_XJJX3I2Di7V-56" value="" style="endArrow=classic;html=1;rounded=0;entryX=0.5;entryY=1;entryDx=0;entryDy=0;" parent="1" target="bzvXZ9JU_XJJX3I2Di7V-46" edge="1">
          <mxGeometry width="50" height="50" relative="1" as="geometry">
            <mxPoint x="432" y="750" as="sourcePoint" />
            <mxPoint x="327" y="630" as="targetPoint" />
          </mxGeometry>
        </mxCell>
        <mxCell id="bzvXZ9JU_XJJX3I2Di7V-57" value="&lt;div style=&quot;font-family: Consolas, &amp;quot;Courier New&amp;quot;, monospace; line-height: 19px;&quot;&gt;&lt;font style=&quot;font-size: 11px;&quot;&gt;$$\beta-\frac{\gamma (\mu - B)}{\sqrt{\sigma^2+\epsilon}}$$&lt;/font&gt;&lt;/div&gt;" style="edgeLabel;html=1;align=center;verticalAlign=middle;resizable=0;points=[];labelBackgroundColor=default;" parent="bzvXZ9JU_XJJX3I2Di7V-56" vertex="1" connectable="0">
          <mxGeometry x="-0.1538" y="2" relative="1" as="geometry">
            <mxPoint x="5" y="-7" as="offset" />
          </mxGeometry>
        </mxCell>
      </root>
    </mxGraphModel>
  </diagram>
</mxfile>
